<svg id="Group_1608" data-name="Group 1608" xmlns="http://www.w3.org/2000/svg" width="43" height="43" viewBox="0 0 43 43">
  <circle id="Ellipse_17" data-name="Ellipse 17" cx="21.5" cy="21.5" r="21.5" fill="#2b71f8"/>
  <path id="noun-refresh-3318515" d="M134.656,51.239a10.678,10.678,0,0,0-6.558-2.286,9.143,9.143,0,1,0,9.143,9.143,1.143,1.143,0,1,1,2.286,0A11.428,11.428,0,1,1,128.1,46.668a12.948,12.948,0,0,1,8,2.8V47.811a1.143,1.143,0,0,1,2.286,0v4.571a1.143,1.143,0,0,1-1.143,1.143H132.67a1.143,1.143,0,0,1,0-2.286Z" transform="translate(-106.866 -36.865)" fill="#fff"/>
</svg>
