<svg xmlns="http://www.w3.org/2000/svg" width="171" height="169.5" viewBox="0 0 171 169.5">
  <g id="noun-maintenance-1360989" transform="translate(-112.748 -34.997)">
    <path id="Path_6799" data-name="Path 6799" d="M236.752,84.605H227.5v5.836H320.88V84.605h-64.2V81.687h51.988c-.414-18.334-4.967-41.63-22.808-43.614v26.1h-5.836V35H268.355V64.178h-5.836v-26.1c-17.841,1.984-22.393,25.279-22.808,43.614h11.136v2.918Z" transform="translate(-75.865)" fill="#2b71f8"/>
    <path id="Path_6800" data-name="Path 6800" d="M481.91,302.205a4.705,4.705,0,1,1-4.705-4.705,4.706,4.706,0,0,1,4.705,4.705" transform="translate(-250.175 -166.282)" fill="#2b71f8" stroke="#2b71f8" stroke-width="2"/>
    <path id="Path_6802" data-name="Path 6802" d="M479.705,301.1a3.6,3.6,0,1,1-3.6-3.6,3.6,3.6,0,0,1,3.6,3.6" transform="translate(-229.957 -131.948)" fill="#2b71f8" stroke="#2b71f8" stroke-width="2"/>
    <path id="Path_6801" data-name="Path 6801" d="M449.9,267.728a2.355,2.355,0,0,1,2.214-1.558h5.527v-4.705h-5.527a2.352,2.352,0,0,1-2.214-1.558c-.141-.393-.3-.778-.475-1.15a2.349,2.349,0,0,1,.459-2.675l3.908-3.908-3.326-3.329-3.91,3.908a2.362,2.362,0,0,1-2.677.461,10.952,10.952,0,0,0-1.136-.473,2.358,2.358,0,0,1-1.57-2.218V245h-4.705v5.527a2.354,2.354,0,0,1-1.569,2.218,11.541,11.541,0,0,0-1.136.473,2.348,2.348,0,0,1-2.677-.461l-3.91-3.908-3.326,3.329,3.908,3.908a2.346,2.346,0,0,1,.459,2.675,12.243,12.243,0,0,0-.475,1.15,2.358,2.358,0,0,1-2.215,1.558H420v4.705h5.527a2.352,2.352,0,0,1,2.214,1.558c.141.393.3.778.475,1.15a2.349,2.349,0,0,1-.459,2.675l-3.908,3.908,3.326,3.329,3.908-3.908a2.356,2.356,0,0,1,2.673-.461,11.9,11.9,0,0,0,1.144.475,2.354,2.354,0,0,1,1.569,2.216v5.527h4.705v-5.527a2.354,2.354,0,0,1,1.569-2.218,11.9,11.9,0,0,0,1.144-.475,2.356,2.356,0,0,1,2.673.461l3.908,3.908,3.326-3.329-3.908-3.908a2.346,2.346,0,0,1-.459-2.675,12.07,12.07,0,0,0,.475-1.148Zm-11.081,5.5a9.411,9.411,0,1,1,9.411-9.41A9.42,9.42,0,0,1,438.82,273.228Z" transform="translate(-211.79 -127.895)" fill="#2b71f8" stroke="#2b71f8" stroke-width="2"/>
    <path id="Path_6803" data-name="Path 6803" d="M442.892,262.4a1.8,1.8,0,0,1,1.7-1.193h4.231v-3.6h-4.231a1.8,1.8,0,0,1-1.7-1.193c-.108-.3-.228-.6-.363-.881a1.8,1.8,0,0,1,.351-2.048l2.992-2.992-2.547-2.549-2.994,2.992a1.809,1.809,0,0,1-2.05.353,8.386,8.386,0,0,0-.87-.362,1.806,1.806,0,0,1-1.2-1.7V245h-3.6v4.231a1.8,1.8,0,0,1-1.2,1.7,8.846,8.846,0,0,0-.87.362,1.8,1.8,0,0,1-2.05-.353l-2.994-2.992-2.547,2.549,2.992,2.992a1.8,1.8,0,0,1,.351,2.048,9.367,9.367,0,0,0-.363.881,1.805,1.805,0,0,1-1.7,1.193H420v3.6h4.231a1.8,1.8,0,0,1,1.7,1.193c.108.3.228.6.363.881a1.8,1.8,0,0,1-.351,2.048l-2.992,2.992,2.547,2.549,2.992-2.992a1.8,1.8,0,0,1,2.047-.353,9.106,9.106,0,0,0,.876.363,1.8,1.8,0,0,1,1.2,1.7v4.231h3.6v-4.231a1.8,1.8,0,0,1,1.2-1.7,9.106,9.106,0,0,0,.876-.363,1.8,1.8,0,0,1,2.047.353l2.992,2.992,2.547-2.549-2.992-2.992a1.8,1.8,0,0,1-.351-2.048,9.222,9.222,0,0,0,.363-.879Zm-8.484,4.211a7.205,7.205,0,1,1,7.205-7.205A7.213,7.213,0,0,1,434.409,266.612Z" transform="translate(-188.264 -90.253)" fill="#2b71f8" stroke="#2b71f8" stroke-width="2"/>
    <g id="Rectangle_120" data-name="Rectangle 120" transform="translate(112.748 99.497)" fill="none" stroke="#2b71f8" stroke-width="8">
      <rect width="171" height="105" rx="16" stroke="none"/>
      <rect x="4" y="4" width="163" height="97" rx="12" fill="none"/>
    </g>
    <line id="Line_44" data-name="Line 44" x2="30.502" transform="translate(137.054 134.63)" fill="none" stroke="#2b71f8" stroke-linecap="round" stroke-width="7"/>
    <line id="Line_45" data-name="Line 45" x2="61.004" transform="translate(137.054 153.693)" fill="none" stroke="#2b71f8" stroke-linecap="round" stroke-width="7"/>
    <line id="Line_46" data-name="Line 46" x2="61.004" transform="translate(137.054 172.757)" fill="none" stroke="#2b71f8" stroke-linecap="round" stroke-width="7"/>
  </g>
</svg>
