<svg xmlns="http://www.w3.org/2000/svg" width="21.411" height="21.618" viewBox="0 0 21.411 21.618">
  <g id="noun-manage-3324115" transform="translate(-167.198 -94.044)">
    <path id="Path_234" data-name="Path 234" d="M174.357,94.314h-4.332a2.831,2.831,0,0,0-2.827,2.827v4.332a2.831,2.831,0,0,0,2.827,2.827h4.332a2.831,2.831,0,0,0,2.827-2.827V97.141a2.831,2.831,0,0,0-2.827-2.827Zm1.285,7.158a1.285,1.285,0,0,1-1.285,1.285h-4.332a1.285,1.285,0,0,1-1.285-1.285V97.141a1.285,1.285,0,0,1,1.285-1.285h4.332a1.285,1.285,0,0,1,1.285,1.285Zm-1.285,4.2h-4.332A2.831,2.831,0,0,0,167.2,108.5v4.331a2.831,2.831,0,0,0,2.827,2.827h4.332a2.831,2.831,0,0,0,2.827-2.827V108.5a2.831,2.831,0,0,0-2.827-2.827Zm1.285,7.158a1.285,1.285,0,0,1-1.285,1.285h-4.332a1.285,1.285,0,0,1-1.285-1.285V108.5a1.285,1.285,0,0,1,1.285-1.285h4.332a1.285,1.285,0,0,1,1.285,1.285Zm10.076-7.158h-4.331a2.831,2.831,0,0,0-2.827,2.827v4.331a2.831,2.831,0,0,0,2.827,2.827h4.331a2.831,2.831,0,0,0,2.827-2.827V108.5a2.831,2.831,0,0,0-2.827-2.827ZM187,112.834a1.285,1.285,0,0,1-1.285,1.285h-4.331a1.285,1.285,0,0,1-1.285-1.285V108.5a1.285,1.285,0,0,1,1.285-1.285h4.331A1.285,1.285,0,0,1,187,108.5Zm-4.46-11.681a2.091,2.091,0,0,0,1.007.257,2.1,2.1,0,1,0-2.02-1.514,2.088,2.088,0,0,0,1.012,1.257Zm.514-2.117h0a.565.565,0,1,1,.224.764.565.565,0,0,1-.224-.764Zm-3.856.613h0a3.068,3.068,0,0,0-.6,1.126.772.772,0,0,0,.081.617l.779,1.28a.774.774,0,0,0,.512.356,3.066,3.066,0,0,0,1.277-.018l.425.232h0a3.054,3.054,0,0,0,.674,1.086.772.772,0,0,0,.558.239h.02l1.5-.035h0a.77.77,0,0,0,.565-.264,3.053,3.053,0,0,0,.625-1.116l.411-.251h0a3.034,3.034,0,0,0,1.279-.042.768.768,0,0,0,.493-.379l.72-1.315a.771.771,0,0,0,.051-.622,3.074,3.074,0,0,0-.654-1.1l-.011-.485a3.07,3.07,0,0,0,.6-1.126.771.771,0,0,0-.082-.617l-.779-1.281a.771.771,0,0,0-.514-.357,3.084,3.084,0,0,0-1.276.018l-.426-.233h0a3.045,3.045,0,0,0-.674-1.085.8.8,0,0,0-.576-.238l-1.5.034h0a.771.771,0,0,0-.563.265,3.059,3.059,0,0,0-.625,1.116l-.411.251h0a3.061,3.061,0,0,0-1.276.041.771.771,0,0,0-.494.38l-.72,1.315a.767.767,0,0,0-.051.621,3.067,3.067,0,0,0,.653,1.1Zm1.279-2.443a1.729,1.729,0,0,1,.224,0,.768.768,0,0,0,.843.027l1.087-.662h0a.771.771,0,0,0,.364-.76,1.369,1.369,0,0,1,.1-.2l.735-.017a1.353,1.353,0,0,1,.112.194.771.771,0,0,0,.4.743l1.117.611a.771.771,0,0,0,.84-.065,1.3,1.3,0,0,1,.223-.01l.382.628h0a1.4,1.4,0,0,1-.112.194.771.771,0,0,0-.444.716l.029,1.273a.771.771,0,0,0,.477.7,1.43,1.43,0,0,1,.121.188l-.353.646a1.292,1.292,0,0,1-.223,0,.771.771,0,0,0-.843-.026l-1.087.662h0a.771.771,0,0,0-.366.76,1.4,1.4,0,0,1-.1.2l-.735.017a1.425,1.425,0,0,1-.112-.194.771.771,0,0,0-.4-.743l-1.117-.611h0a.771.771,0,0,0-.84.066,1.544,1.544,0,0,1-.223.011l-.378-.628a1.414,1.414,0,0,1,.113-.194.771.771,0,0,0,.444-.716l-.029-1.272a.771.771,0,0,0-.477-.7,1.365,1.365,0,0,1-.121-.189Z" fill="#2b71f8"/>
  </g>
</svg>
