<svg xmlns="http://www.w3.org/2000/svg" width="136.057" height="186.201" viewBox="0 0 136.057 186.201">
  <g id="noun-attendance-2475901" transform="translate(-157.25 -61.182)">
    <path id="Path_172" data-name="Path 172" d="M280.734,76.772H268.41l.068-3.017a12.322,12.322,0,0,0-12.323-12.323H194.539a12.322,12.322,0,0,0-12.323,12.323l-.069,3.017H169.823A12.322,12.322,0,0,0,157.5,89.1V234.809a12.322,12.322,0,0,0,12.323,12.323h110.91a12.322,12.322,0,0,0,12.323-12.323V89.1a12.322,12.322,0,0,0-12.323-12.323ZM190.306,70.61h70.649V95.257H190.306Zm93.521,167.461H167.3V86.259h14.85l.069,5.3a12.322,12.322,0,0,0,12.323,12.323h61.617a12.322,12.322,0,0,0,12.323-12.323l-.068-5.3h15.417Z" transform="translate(0 0)" fill="#2b71f8" stroke="#2b71f8" stroke-width="0.5"/>
    <path id="Path_200" data-name="Path 200" d="M359.6,245H319.955a5.247,5.247,0,0,0-4.292,2.021,3.409,3.409,0,0,0,0,4.042,5.247,5.247,0,0,0,4.292,2.021H359.6a5.246,5.246,0,0,0,4.292-2.021,3.408,3.408,0,0,0,0-4.042A5.246,5.246,0,0,0,359.6,245Z" transform="translate(-96.013 -78.972)" fill="#2b71f8"/>
    <path id="Path_201" data-name="Path 201" d="M359.6,245H319.955a5.247,5.247,0,0,0-4.292,2.021,3.409,3.409,0,0,0,0,4.042,5.247,5.247,0,0,0,4.292,2.021H359.6a5.246,5.246,0,0,0,4.292-2.021,3.408,3.408,0,0,0,0-4.042A5.246,5.246,0,0,0,359.6,245Z" transform="translate(-96.013 -118.047)" fill="#2b71f8"/>
    <path id="Path_202" data-name="Path 202" d="M359.6,245H319.955a5.247,5.247,0,0,0-4.292,2.021,3.409,3.409,0,0,0,0,4.042,5.247,5.247,0,0,0,4.292,2.021H359.6a5.246,5.246,0,0,0,4.292-2.021,3.408,3.408,0,0,0,0-4.042A5.246,5.246,0,0,0,359.6,245Z" transform="translate(-96.013 -38.649)" fill="#2b71f8"/>
    <path id="noun-check-4815603" d="M169.466,153.791a1.167,1.167,0,0,1-.829-.344l-4.689-4.688h0a1.172,1.172,0,0,1,1.657-1.658l3.86,3.86,10.893-10.893a1.172,1.172,0,1,1,1.657,1.657L170.3,153.447h0a1.169,1.169,0,0,1-.829.343Z" transform="translate(22.394 -16.988)" fill="#2b71f8" stroke="#2b71f8" stroke-width="5"/>
    <path id="noun-check-4815603-2" data-name="noun-check-4815603" d="M169.466,153.791a1.167,1.167,0,0,1-.829-.344l-4.689-4.688h0a1.172,1.172,0,0,1,1.657-1.658l3.86,3.86,10.893-10.893a1.172,1.172,0,1,1,1.657,1.657L170.3,153.447h0a1.169,1.169,0,0,1-.829.343Z" transform="translate(22.394 63.642)" fill="#2b71f8" stroke="#2b71f8" stroke-width="5"/>
    <g id="noun-cross-1707162" transform="translate(186.013 160.693)">
      <path id="Path_203" data-name="Path 203" d="M242.556,172.556a1.46,1.46,0,0,1,2.065,0l6.885,6.885,6.885-6.885a1.46,1.46,0,0,1,2.065,2.065l-6.885,6.885,6.885,6.884a1.46,1.46,0,0,1-2.065,2.065l-6.885-6.885-6.885,6.885a1.46,1.46,0,0,1-2.065-2.065l6.885-6.884-6.885-6.885A1.46,1.46,0,0,1,242.556,172.556Z" transform="translate(-242.128 -172.128)" fill="#2b71f8" stroke="#2b71f8" stroke-width="4"/>
    </g>
  </g>
</svg>
