<svg xmlns="http://www.w3.org/2000/svg" width="23.35" height="23.35" viewBox="0 0 23.35 23.35">
  <g id="noun-full-screen-3551944" transform="translate(-193.199 -123.199)">
    <path id="Path_217" data-name="Path 217" d="M399.8,131.539h3.336v-5A3.336,3.336,0,0,0,399.8,123.2h-5v3.336h5Z" transform="translate(-186.591 -0.001)" fill="#2b71f8"/>
    <path id="Path_218" data-name="Path 218" d="M403.139,329.8v-5H399.8v5h-5v3.336h5a3.336,3.336,0,0,0,3.336-3.336Z" transform="translate(-186.59 -186.591)" fill="#2b71f8"/>
    <path id="Path_219" data-name="Path 219" d="M196.535,333.139h5V329.8h-5v-5H193.2v5a3.336,3.336,0,0,0,3.336,3.336Z" transform="translate(0 -186.59)" fill="#2b71f8"/>
    <path id="Path_220" data-name="Path 220" d="M196.535,126.535h5V123.2h-5a3.336,3.336,0,0,0-3.336,3.336v5h3.336Z" fill="#2b71f8"/>
  </g>
</svg>
