<svg xmlns="http://www.w3.org/2000/svg" width="17.17" height="18.805" viewBox="0 0 17.17 18.805">
  <g id="noun-user-1779990" transform="translate(-114.8 -22.402)">
    <path id="Path_216" data-name="Path 216" d="M123.385,22.4a4.293,4.293,0,1,0,4.293,4.293A4.305,4.305,0,0,0,123.385,22.4Zm0,1.635a2.657,2.657,0,1,1-2.657,2.657A2.645,2.645,0,0,1,123.385,24.037Zm0,7.359A8.808,8.808,0,0,0,114.8,40.39a.818.818,0,0,0,.818.818h15.535a.818.818,0,0,0,.818-.818,8.808,8.808,0,0,0-8.585-8.994Zm0,1.635a7.075,7.075,0,0,1,6.873,6.541H116.512A7.074,7.074,0,0,1,123.385,33.031Z" transform="translate(0)" fill="#2a71f9"/>
  </g>
</svg>
