<svg xmlns="http://www.w3.org/2000/svg" width="18.677" height="25.4" viewBox="0 0 18.677 25.4">
  <g id="noun-attendance-2475901" transform="translate(-157.25 -61.182)">
    <path id="Path_172" data-name="Path 172" d="M174.024,63.489h-1.652l.009-.4a1.652,1.652,0,0,0-1.652-1.652h-8.262a1.652,1.652,0,0,0-1.652,1.652l-.009.4h-1.652a1.652,1.652,0,0,0-1.652,1.652V84.679a1.652,1.652,0,0,0,1.652,1.652h14.872a1.652,1.652,0,0,0,1.652-1.652V65.141a1.652,1.652,0,0,0-1.652-1.652ZM161.9,62.662h9.473v3.3H161.9Zm12.54,22.454H158.814V64.761H160.8l.009.711a1.652,1.652,0,0,0,1.652,1.652h8.262a1.652,1.652,0,0,0,1.652-1.652l-.009-.711h2.067Z" fill="#2b71f8" stroke="#2b71f8" stroke-width="0.5"/>
    <path id="Path_200" data-name="Path 200" d="M320.98,245h-5.316a.7.7,0,0,0-.575.271.457.457,0,0,0,0,.542.7.7,0,0,0,.575.271h5.316a.7.7,0,0,0,.575-.271.457.457,0,0,0,0-.542A.7.7,0,0,0,320.98,245Z" transform="translate(-149.256 -169.543)" fill="#2b71f8"/>
    <path id="Path_201" data-name="Path 201" d="M320.98,245h-5.316a.7.7,0,0,0-.575.271.457.457,0,0,0,0,.542.7.7,0,0,0,.575.271h5.316a.7.7,0,0,0,.575-.271.457.457,0,0,0,0-.542A.7.7,0,0,0,320.98,245Z" transform="translate(-149.256 -174.783)" fill="#2b71f8"/>
    <path id="Path_202" data-name="Path 202" d="M320.98,245h-5.316a.7.7,0,0,0-.575.271.457.457,0,0,0,0,.542.7.7,0,0,0,.575.271h5.316a.7.7,0,0,0,.575-.271.457.457,0,0,0,0-.542A.7.7,0,0,0,320.98,245Z" transform="translate(-149.256 -164.137)" fill="#2b71f8"/>
    <path id="noun-check-4815603" d="M164.4,141.6a.157.157,0,0,1-.111-.046l-.629-.629h0a.157.157,0,0,1,.222-.222l.518.518,1.461-1.461a.157.157,0,1,1,.222.222l-1.572,1.572h0a.157.157,0,0,1-.111.046Z" transform="translate(-2.297 -70.06)" fill="#2b71f8" stroke="#2b71f8" stroke-width="1"/>
    <path id="noun-check-4815603-2" data-name="noun-check-4815603" d="M164.4,141.6a.157.157,0,0,1-.111-.046l-.629-.629h0a.157.157,0,0,1,.222-.222l.518.518,1.461-1.461a.157.157,0,1,1,.222.222l-1.572,1.572h0a.157.157,0,0,1-.111.046Z" transform="translate(-2.297 -59.249)" fill="#2b71f8" stroke="#2b71f8" stroke-width="1"/>
    <g id="noun-cross-1707162" transform="translate(161.323 74.741)">
      <path id="Path_203" data-name="Path 203" d="M242.186,172.185a.2.2,0,0,1,.277,0l.923.923.923-.923a.2.2,0,0,1,.277.277l-.923.923.923.923a.2.2,0,0,1-.277.277l-.923-.923-.923.923a.2.2,0,0,1-.277-.277l.923-.923-.923-.923A.2.2,0,0,1,242.186,172.185Z" transform="translate(-242.128 -172.128)" fill="#2b71f8" stroke="#2b71f8" stroke-width="1"/>
    </g>
  </g>
</svg>
