<svg xmlns="http://www.w3.org/2000/svg" width="190.277" height="196.733" viewBox="0 0 190.277 196.733">
  <g id="noun-coffee-break-4180685" transform="translate(-73.503 -18.037)">
    <path id="Path_204" data-name="Path 204" d="M241.85,223.953v-5.886h3.993a3.119,3.119,0,1,0,0-6.238H231.6a3.119,3.119,0,1,0,0,6.238h4.014v5.907a46.623,46.623,0,0,0-13.27,2.911v-38.58a3.119,3.119,0,0,0-3.119-3.12H131.373a3.121,3.121,0,0,0-3.121,3.12v16.639h-9.608a19.882,19.882,0,0,0,0,39.744h9.608v13.831a28.1,28.1,0,0,0,28.077,28.076h38.849a46.607,46.607,0,1,0,46.67-62.643Zm-113.6,14.558-9.61,0a13.644,13.644,0,0,1,0-27.267h9.608Zm28.078,41.908h0a21.858,21.858,0,0,1-21.838-21.838V191.428H216.1v38.394a46.675,46.675,0,0,0-23.814,40.618,47.8,47.8,0,0,0,1.081,9.962ZM238.9,310.824h0A40.432,40.432,0,0,1,201.46,285.66a41.187,41.187,0,0,1-1.872-5.948,39.786,39.786,0,0,1-1.123-9.254A40.413,40.413,0,0,1,216.04,237.18a42.438,42.438,0,0,1,6.238-3.493A40.344,40.344,0,1,1,238.9,310.8Z" transform="translate(-24.049 -104.029)" fill="#2b71f8" stroke="#2b71f8" stroke-width="3.3"/>
    <path id="Path_205" data-name="Path 205" d="M420.426,328.159a32.266,32.266,0,0,0-32.237,32.153,31.062,31.062,0,0,0,.521,5.616,30.626,30.626,0,0,0,1.788,6.24,32.154,32.154,0,1,0,29.929-44.009Zm0,58.089a25.893,25.893,0,0,1-25.915-25.935v-.749a25.915,25.915,0,1,1,25.915,26.683Z" transform="translate(-205.581 -193.903)" fill="#2b71f8" stroke="#2b71f8" stroke-width="3.3"/>
    <path id="Path_206" data-name="Path 206" d="M569.495,302.316a3.125,3.125,0,1,0,4.429-4.41l-10.087-10.087a3.12,3.12,0,0,0-4.408,4.41Z" transform="translate(-312.699 -168.019)" fill="#2b71f8" stroke="#2b71f8" stroke-width="3.3"/>
    <path id="Path_207" data-name="Path 207" d="M474.759,381.481l-1.476-5.386V364.656h0a3.12,3.12,0,1,0-6.24,0V381.3h0a3.124,3.124,0,0,0,.915,2.205l6.24,6.24a3.082,3.082,0,0,0,2.2.915,3.023,3.023,0,0,0,2.205-.915,3.1,3.1,0,0,0,0-4.409Z" transform="translate(-255.15 -214.885)" fill="#2b71f8" stroke="#2b71f8" stroke-width="3.3"/>
    <path id="Path_208" data-name="Path 208" d="M286.509,66.853a3.14,3.14,0,0,0,.562,4.388,3.23,3.23,0,0,0,1.976.686,3.118,3.118,0,0,0,2.308-1.165c10.711-13.186,8.153-19.945-.292-27.786-4.575-4.263.562-14.932,2.724-18.323h0a3.12,3.12,0,0,0-5.262-3.348c-.457.728-11.065,17.574-1.706,26.247,6.343,5.906,7.966,9.109-.312,19.3Z" transform="translate(-139.443 -0.149)" fill="#2b71f8" stroke="#2b71f8" stroke-width="3.3"/>
    <path id="Path_209" data-name="Path 209" d="M238.229,66.7a3.141,3.141,0,0,0,.458,4.388,3.227,3.227,0,0,0,2.079.686,3.124,3.124,0,0,0,2.31-1.165c10.711-13.186,8.153-19.945-.291-27.786-4.576-4.264.561-14.932,2.724-18.323a3.124,3.124,0,0,0-5.262-3.37c-.457.728-11.065,17.574-1.706,26.247,6.344,5.928,7.966,9.131-.312,19.322Z" transform="translate(-109.093 0)" fill="#2b71f8" stroke="#2b71f8" stroke-width="3.3"/>
    <path id="Path_210" data-name="Path 210" d="M334.776,66.7a3.14,3.14,0,0,0,.457,4.388,3.228,3.228,0,0,0,2.08.686,3.122,3.122,0,0,0,2.308-1.165c10.711-13.186,8.153-19.945-.292-27.786-4.576-4.264.561-14.932,2.724-18.323a3.124,3.124,0,0,0-5.262-3.37c-.457.728-11.065,17.574-1.706,26.247,6.344,5.928,7.966,9.131-.311,19.322Z" transform="translate(-169.783 0)" fill="#2b71f8" stroke="#2b71f8" stroke-width="3.3"/>
  </g>
</svg>
