<svg id="noun-project-management-4578739" xmlns="http://www.w3.org/2000/svg" width="27.949" height="24.544" viewBox="0 0 27.949 24.544">
  <path id="Path_241" data-name="Path 241" d="M58.761,4.455v-.95a1.82,1.82,0,0,0-1.818-1.818H55.906V.225A.222.222,0,0,0,55.684,0h-20.2a.222.222,0,0,0-.222.222V1.687h-2.24a1.871,1.871,0,0,0-1.869,1.869V22.679a1.871,1.871,0,0,0,1.869,1.869H57.234A1.871,1.871,0,0,0,59.1,22.679V5.529a1.849,1.849,0,0,0-.341-1.074ZM56.943,2.612c.758,0,1.021.31,1.031.742v.5c-.312-.223-.344-.194-.74-.194H55.906V2.612ZM36.189.733H55.027V3.659H42a.932.932,0,0,1-.8-.459l-.344-.588a1.875,1.875,0,0,0-1.613-.925H36.189Z" transform="translate(-31.153 -0.004)" fill="#2b71f8"/>
  <path id="Path_242" data-name="Path 242" d="M240.712,136.315l-1.777-.193c-.077,0-.116-.039-.154-.116l-.232-.579a.176.176,0,0,1,0-.193l1.159-1.391a.589.589,0,0,0-.039-.773l-1.082-1.082a.587.587,0,0,0-.773-.039l-1.391,1.159a.29.29,0,0,1-.193.039,3.62,3.62,0,0,0-.579-.232c-.077-.039-.116-.077-.116-.154l-.193-1.777a.585.585,0,0,0-.579-.5h-1.545a.617.617,0,0,0-.579.5l-.193,1.777c0,.077-.039.116-.116.154l-.579.232c-.077.039-.116.039-.193-.039l-1.391-1.159a.589.589,0,0,0-.773.039l-1.044,1.12a.587.587,0,0,0-.039.773l1.159,1.391a.173.173,0,0,1,0,.193,3.616,3.616,0,0,0-.232.579c-.039.077-.077.116-.154.116l-1.777.193a.585.585,0,0,0-.5.579v1.545a.617.617,0,0,0,.5.579l1.777.193c.077,0,.116.039.154.116l.232.579a.176.176,0,0,1,0,.193l-1.159,1.391a.589.589,0,0,0,.039.773l1.082,1.082a.587.587,0,0,0,.773.039l1.391-1.159a.29.29,0,0,1,.193-.039,3.618,3.618,0,0,0,.579.232c.077.039.116.077.116.154l.193,1.777a.585.585,0,0,0,.579.5H234.8a.617.617,0,0,0,.579-.5l.193-1.777c0-.077.039-.116.116-.154l.579-.232c.077-.039.116-.039.193.039l1.391,1.159a.589.589,0,0,0,.773-.039l1.082-1.082a.587.587,0,0,0,.039-.773l-1.159-1.391a.173.173,0,0,1,0-.193,3.622,3.622,0,0,0,.232-.579c.039-.077.077-.116.154-.116l1.777-.193a.585.585,0,0,0,.5-.579v-1.545a.627.627,0,0,0-.54-.618Zm-6.684,4.1a2.782,2.782,0,1,1,2.782-2.782A2.77,2.77,0,0,1,234.028,140.411Z" transform="translate(-220.038 -123.594)" fill="#f6f6f6"/>
</svg>
