<svg id="noun-tool-3605747" xmlns="http://www.w3.org/2000/svg" width="27.4" height="27.323" viewBox="0 0 27.4 27.323">
  <path id="Path_243" data-name="Path 243" d="M160.894,109.977a4.083,4.083,0,0,1,.155,1.2,4.658,4.658,0,0,1-4.644,4.644,4.752,4.752,0,0,1-2.09-.5l2.361-2.361-2.051-2.051-2.361,2.361a4.754,4.754,0,0,1-.5-2.09,4.658,4.658,0,0,1,4.644-4.644,5.993,5.993,0,0,1,1.2.155l4.141-4.141,3.29,3.29Zm5.263-4.141-.7,1.78,8.746,8.746,1.78-.7,2.477-2.477.7-1.78-8.785-8.708-1.78.7-8.63-8.63-.31-2.786-5.263-2.825-2.477,2.477L154.74,96.9l2.786.31Zm-.851-6.811,3.29,3.29,4.141-4.141a4.084,4.084,0,0,0,1.2.155,4.658,4.658,0,0,0,4.644-4.644,4.752,4.752,0,0,0-.5-2.09l-2.361,2.361L173.665,91.9l2.361-2.361a4.754,4.754,0,0,0-2.09-.5,4.658,4.658,0,0,0-4.644,4.644,6,6,0,0,0,.155,1.2Z" transform="translate(-151.76 -89.039)" fill="#2b71f8"/>
</svg>
