<svg xmlns="http://www.w3.org/2000/svg" width="25.862" height="26.979" viewBox="0 0 25.862 26.979">
  <path id="noun-add-setting-4130322" d="M191.26,104.278a2.451,2.451,0,0,0-1.153-1.484l-.5-.294h0a1.693,1.693,0,0,1-.772-1.508,1.643,1.643,0,0,1,.772-1.472l.5-.294a2.453,2.453,0,0,0,.907-3.348l-1.839-3.188a2.453,2.453,0,0,0-3.409-.932l-.5.294a1.68,1.68,0,0,1-1.717-.1,1.643,1.643,0,0,1-.9-1.41v-.589A2.453,2.453,0,0,0,180.2,87.5H176.52a2.452,2.452,0,0,0-2.453,2.453v.589a1.692,1.692,0,0,1-.944,1.447,1.668,1.668,0,0,1-1.668.061l-.4-.294a2.452,2.452,0,0,0-3.36.9l-1.839,3.188a2.452,2.452,0,0,0,.907,3.348l.5.294h0a1.692,1.692,0,0,1,.723,1.508,1.643,1.643,0,0,1-.772,1.472l-.5.294a2.452,2.452,0,0,0-1.153,1.484,2.525,2.525,0,0,0,.245,1.864l1.839,3.188a2.453,2.453,0,0,0,3.36.9l.5-.294a1.681,1.681,0,0,1,1.717.1,1.644,1.644,0,0,1,.9,1.41v.625a2.452,2.452,0,0,0,2.453,2.453h3.679a2.452,2.452,0,0,0,2.453-2.453v-.589a1.692,1.692,0,0,1,.944-1.447,1.667,1.667,0,0,1,1.668-.061l.5.294a2.452,2.452,0,0,0,3.36-.9l1.839-3.188a2.525,2.525,0,0,0,.245-1.864Zm-9.786-2.06h-1.839v1.839a1.226,1.226,0,1,1-2.453,0v-1.839h-1.839a1.226,1.226,0,1,1,0-2.453h1.839V97.926a1.226,1.226,0,1,1,2.453,0v1.839h1.839a1.226,1.226,0,1,1,0,2.453Z" transform="translate(-165.478 -87.502)" fill="#2b71f8"/>
</svg>
