<svg xmlns="http://www.w3.org/2000/svg" width="30.848" height="31.987" viewBox="0 0 30.848 31.987">
  <g id="noun-work-2614152" transform="translate(-106.964 -27.998)">
    <path id="Path_211" data-name="Path 211" d="M119.58,228.979a2.415,2.415,0,0,1-1.457-.746c-.178-.142-.5-.426-.64-.426-.071.035-.391.284-.6.426-.5.391-1.066.888-1.742.711-.711-.142-1.031-.853-1.279-1.421a2.553,2.553,0,0,0-.355-.64,4.858,4.858,0,0,0-.711.142,2.174,2.174,0,0,1-1.884-.107c-.569-.426-.533-1.173-.533-1.812a4.338,4.338,0,0,0-.035-.746c-.071-.035-.462-.107-.675-.178-.6-.142-1.351-.284-1.67-.924a2.044,2.044,0,0,1,.32-1.848,2.678,2.678,0,0,0,.284-.711,4.521,4.521,0,0,0-.533-.426c-.5-.391-1.1-.853-1.1-1.564a2.11,2.11,0,0,1,1.1-1.564,2.46,2.46,0,0,0,.533-.5,3.979,3.979,0,0,0-.284-.64,2.175,2.175,0,0,1-.32-1.848c.32-.64,1.066-.782,1.67-.924a2.82,2.82,0,0,0,.711-.213,4.591,4.591,0,0,0,0-.711c0-.64-.035-1.386.533-1.812a2.182,2.182,0,0,1,1.884-.107,1.988,1.988,0,0,0,.746.107c.035-.071.213-.426.32-.6.249-.569.569-1.279,1.279-1.421a2.208,2.208,0,0,1,1.742.711c.178.142.5.426.64.426.071-.035.391-.284.6-.426a2.1,2.1,0,0,1,1.742-.711c.711.142,1.031.853,1.279,1.421a2.553,2.553,0,0,0,.356.64,4.858,4.858,0,0,0,.711-.142,2.174,2.174,0,0,1,1.884.107c.569.426.533,1.173.533,1.812a4.338,4.338,0,0,0,.035.746c.071.035.462.107.675.178.6.142,1.351.284,1.67.924a2.044,2.044,0,0,1-.32,1.848,2.677,2.677,0,0,0-.284.711,4.527,4.527,0,0,0,.533.426c.5.391,1.1.853,1.1,1.564a2.11,2.11,0,0,1-1.1,1.564,2.461,2.461,0,0,0-.533.5,3.979,3.979,0,0,0,.284.64,2.175,2.175,0,0,1,.32,1.848c-.32.64-1.066.782-1.67.924a2.819,2.819,0,0,0-.711.213,4.591,4.591,0,0,0,0,.711c0,.64.035,1.386-.533,1.812a2.189,2.189,0,0,1-1.884.107,3.385,3.385,0,0,0-.746-.142c-.035.071-.213.426-.32.6-.249.569-.569,1.279-1.279,1.421a.427.427,0,0,1-.284.071Zm-6.042-3.483a1.394,1.394,0,0,1,.64.142,2.476,2.476,0,0,1,1,1.315,3.251,3.251,0,0,0,.32.6,2.4,2.4,0,0,0,.5-.391,2.5,2.5,0,0,1,1.493-.746,2.41,2.41,0,0,1,1.493.746,4.793,4.793,0,0,0,.5.391c.107-.142.213-.426.32-.6a1.825,1.825,0,0,1,2.665-1.279c.178.035.462.107.64.142a4.091,4.091,0,0,0,.035-.675,2.382,2.382,0,0,1,.355-1.635,2.339,2.339,0,0,1,1.528-.675,3.347,3.347,0,0,0,.64-.178c-.035-.142-.178-.426-.249-.6a2.448,2.448,0,0,1-.391-1.635,2.489,2.489,0,0,1,1.066-1.279,2.267,2.267,0,0,0,.533-.462,3.583,3.583,0,0,0-.533-.462,2.49,2.49,0,0,1-1.066-1.279,2.448,2.448,0,0,1,.391-1.635,4.349,4.349,0,0,0,.249-.6,3.37,3.37,0,0,0-.64-.178,2.724,2.724,0,0,1-1.528-.675,2.591,2.591,0,0,1-.355-1.635,4.312,4.312,0,0,0-.035-.675,2.077,2.077,0,0,0-.64.142,1.825,1.825,0,0,1-2.665-1.279,3.25,3.25,0,0,0-.32-.6,2.4,2.4,0,0,0-.5.391,2.5,2.5,0,0,1-1.493.746,2.41,2.41,0,0,1-1.493-.746,4.792,4.792,0,0,0-.5-.391c-.107.142-.213.426-.32.6a1.825,1.825,0,0,1-2.665,1.279c-.178-.035-.462-.107-.64-.142a4.091,4.091,0,0,0-.035.675,2.382,2.382,0,0,1-.355,1.635,2.339,2.339,0,0,1-1.528.675,3.347,3.347,0,0,0-.64.178c.035.142.178.426.249.6a2.448,2.448,0,0,1,.391,1.635,2.489,2.489,0,0,1-1.066,1.279,3.541,3.541,0,0,0-.533.462,3.582,3.582,0,0,0,.533.462,2.49,2.49,0,0,1,1.066,1.279,2.448,2.448,0,0,1-.391,1.635,4.351,4.351,0,0,0-.249.6,3.37,3.37,0,0,0,.64.178,2.723,2.723,0,0,1,1.528.675,2.363,2.363,0,0,1,.32,1.635,4.313,4.313,0,0,0,.035.675,2.078,2.078,0,0,0,.64-.142,4.174,4.174,0,0,1,1.067-.177Z" transform="translate(0 -168.995)" fill="#2a71f9"/>
    <path id="Path_212" data-name="Path 212" d="M208.772,309.465a4.371,4.371,0,1,1,4.371-4.371A4.368,4.368,0,0,1,208.772,309.465Zm0-7.286a2.95,2.95,0,1,0,2.95,2.95A2.942,2.942,0,0,0,208.772,302.179Z" transform="translate(-91.253 -255.416)" fill="#2a71f9"/>
    <path id="Path_213" data-name="Path 213" d="M412.21,110.98a3.412,3.412,0,1,1,3.412-3.412A3.413,3.413,0,0,1,412.21,110.98Zm0-5.4a1.99,1.99,0,1,0,1.99,1.99A1.987,1.987,0,0,0,412.21,105.578Z" transform="translate(-282.678 -71.325)" fill="#2a71f9"/>
    <path id="Path_214" data-name="Path 214" d="M340.356,44.453a2.105,2.105,0,0,1-1.457-.888,1.423,1.423,0,0,0-.426-.391,2.2,2.2,0,0,0-.569.142,2.093,2.093,0,0,1-1.67.035,2,2,0,0,1-.817-1.493,1.785,1.785,0,0,0-.178-.569,4.355,4.355,0,0,0-.569-.142,2.125,2.125,0,0,1-1.493-.817,2.094,2.094,0,0,1,.035-1.67,2.407,2.407,0,0,0,.142-.6,2,2,0,0,0-.391-.391,2.033,2.033,0,0,1-.888-1.457,2.106,2.106,0,0,1,.888-1.457,1.422,1.422,0,0,0,.391-.426,2.61,2.61,0,0,0-.142-.569,2.093,2.093,0,0,1-.035-1.67,2,2,0,0,1,1.493-.817,1.784,1.784,0,0,0,.569-.178,4.36,4.36,0,0,0,.142-.569,2.124,2.124,0,0,1,.817-1.493,2.094,2.094,0,0,1,1.67.035,2.408,2.408,0,0,0,.6.142,2,2,0,0,0,.391-.391A2.392,2.392,0,0,1,340.356,28a2.033,2.033,0,0,1,1.457.888,1.422,1.422,0,0,0,.426.391,2.612,2.612,0,0,0,.569-.142,2.093,2.093,0,0,1,1.67-.035,2,2,0,0,1,.817,1.493,1.785,1.785,0,0,0,.178.569,4.359,4.359,0,0,0,.569.142,2.124,2.124,0,0,1,1.493.817,2.094,2.094,0,0,1-.035,1.67,2.407,2.407,0,0,0-.142.6,2,2,0,0,0,.391.391,2.033,2.033,0,0,1,.888,1.457,2.106,2.106,0,0,1-.888,1.457,1.422,1.422,0,0,0-.391.426,2.61,2.61,0,0,0,.142.569,2.093,2.093,0,0,1,.035,1.67,2,2,0,0,1-1.493.817,1.785,1.785,0,0,0-.569.178,4.35,4.35,0,0,0-.142.569,2.124,2.124,0,0,1-.817,1.493,2.094,2.094,0,0,1-1.67-.035,2.408,2.408,0,0,0-.6-.142,2,2,0,0,0-.391.391A2.32,2.32,0,0,1,340.356,44.453Zm-1.884-2.7a1.461,1.461,0,0,1,.391.035,2.8,2.8,0,0,1,1.1.817,2.4,2.4,0,0,0,.462.426c0-.035.249-.284.356-.426a2.568,2.568,0,0,1,1.1-.817,2.325,2.325,0,0,1,1.386.178c.142.035.391.107.533.142a1.92,1.92,0,0,0,.142-.533,2.9,2.9,0,0,1,.533-1.279,2.262,2.262,0,0,1,1.279-.533,2.965,2.965,0,0,0,.533-.142,4.025,4.025,0,0,0-.142-.533,2.638,2.638,0,0,1-.178-1.386,2.8,2.8,0,0,1,.817-1.1,2.034,2.034,0,0,0,.391-.391,4.063,4.063,0,0,0-.391-.391,2.568,2.568,0,0,1-.817-1.1,2.325,2.325,0,0,1,.178-1.386c.035-.142.107-.391.142-.533a1.92,1.92,0,0,0-.533-.142,2.9,2.9,0,0,1-1.279-.533,2.165,2.165,0,0,1-.533-1.279,2.966,2.966,0,0,0-.142-.533,4.025,4.025,0,0,0-.533.142,2.593,2.593,0,0,1-1.386.178,2.8,2.8,0,0,1-1.1-.817,2.406,2.406,0,0,0-.462-.426c0,.035-.249.284-.356.426a2.568,2.568,0,0,1-1.1.817,2.29,2.29,0,0,1-1.386-.178c-.142-.035-.391-.107-.533-.142a1.92,1.92,0,0,0-.142.533,2.9,2.9,0,0,1-.533,1.279,2.261,2.261,0,0,1-1.279.533,2.968,2.968,0,0,0-.533.142,4.035,4.035,0,0,0,.142.533,2.639,2.639,0,0,1,.178,1.386,2.377,2.377,0,0,1-.818,1.1,2.408,2.408,0,0,0-.426.462c.036,0,.284.249.426.355a2.568,2.568,0,0,1,.817,1.1,2.325,2.325,0,0,1-.178,1.386c-.035.142-.107.391-.142.533a1.92,1.92,0,0,0,.533.142,2.9,2.9,0,0,1,1.279.533,2.262,2.262,0,0,1,.533,1.279,2.965,2.965,0,0,0,.142.533,4.025,4.025,0,0,0,.533-.142,3.161,3.161,0,0,1,1-.249Z" transform="translate(-210.825 0)" fill="#2a71f9"/>
  </g>
</svg>
