<svg xmlns="http://www.w3.org/2000/svg" width="144.169" height="158.568" viewBox="0 0 144.169 158.568">
  <g id="noun-delete-project-2534769" transform="translate(-148.399 -31.624)">
    <path id="Path_6785" data-name="Path 6785" d="M232.919,188.029c.72.72,1.622,1.442,2.343,2.162H163.177a14.691,14.691,0,0,1-14.778-14.6V54.132a14.69,14.69,0,0,1,14.778-14.6h15.678l8.47-4.847a10.1,10.1,0,0,1,7.208-3.063h37.484a9.8,9.8,0,0,1,7.208,3.063l8.47,4.847h14.237a14.691,14.691,0,0,1,14.778,14.6V121.35c-5.407-2.162-4.323-3.063-10.091-2.884V49.308h-19.1l-8.29,4.824a10.1,10.1,0,0,1-7.208,3.063H194.533a9.8,9.8,0,0,1-7.208-3.063l-8.47-4.824H158.924V179.475h68.67c1.981,5.407,1,4.228,5.323,8.554ZM235.8,88.552V82.064a2.385,2.385,0,0,0-2.343-2.343H191.47a2.385,2.385,0,0,0-2.343,2.343v6.488A2.385,2.385,0,0,0,191.47,90.9h41.989A2.174,2.174,0,0,0,235.8,88.552Zm0,20.183v-6.488a2.385,2.385,0,0,0-2.343-2.343H191.47a2.385,2.385,0,0,0-2.343,2.343v6.488a2.385,2.385,0,0,0,2.343,2.343h41.989a2.175,2.175,0,0,0,2.343-2.344Zm0,20.185v-6.488a2.385,2.385,0,0,0-2.343-2.343H191.47a2.385,2.385,0,0,0-2.343,2.343v6.488a2.385,2.385,0,0,0,2.343,2.343h41.989a2.387,2.387,0,0,0,2.342-2.343Zm25.77,61.272a31,31,0,1,1,31-31A31,31,0,0,1,261.572,190.192Zm11.174-24.87-5.947-5.947,5.947-5.947a4.34,4.34,0,0,0-6.127-6.127l-5.947,5.947-5.767-5.767a4.34,4.34,0,0,0-6.127,6.127l5.767,5.767-5.947,5.947a4.34,4.34,0,0,0,6.127,6.127l5.947-5.947,5.947,5.947a4.247,4.247,0,0,0,5.947-.18A4.09,4.09,0,0,0,272.746,165.322Z" fill="#2b71f8"/>
  </g>
</svg>
