<svg id="noun-dashboard-3496022" xmlns="http://www.w3.org/2000/svg" width="20.546" height="16.81" viewBox="0 0 20.546 16.81">
  <path id="Path_1" data-name="Path 1" d="M257.6,445.2h5.6a.934.934,0,0,0,0-1.868h-5.6a.934.934,0,0,0,0,1.868Z" transform="translate(-250.13 -428.39)" fill="#2b71f8"/>
  <path id="Path_2" data-name="Path 2" d="M96.132,84.008h14.943a2.8,2.8,0,0,0,2.8-2.8V72.8a2.8,2.8,0,0,0-2.8-2.8H96.132a2.8,2.8,0,0,0-2.8,2.8v8.405a2.8,2.8,0,0,0,2.8,2.8Zm12.141-9.339a.934.934,0,1,1,1.868,0v4.67h0a.934.934,0,1,1-1.868,0Zm-3.736.934a.934.934,0,0,1,1.868,0v3.736a.934.934,0,0,1-1.868,0Zm-3.736.934a.934.934,0,0,1,1.868,0v2.8a.934.934,0,0,1-1.868,0Zm-3.736.934a.934.934,0,1,1,1.868,0v1.868h0a.934.934,0,1,1-1.868,0Z" transform="translate(-93.33 -70)" fill="#2b71f8"/>
</svg>
