<svg xmlns="http://www.w3.org/2000/svg" width="24.877" height="25.34" viewBox="0 0 24.877 25.34">
  <g id="noun-logout-1997049" transform="translate(-103.09 -28.562)">
    <path id="Path_254" data-name="Path 254" d="M115.724,46.978v3.968a5.394,5.394,0,0,1-.008.633c.019-.146.039-.292.058-.441a.954.954,0,0,1-.05.179c.055-.132.11-.264.165-.394a1,1,0,0,1-.11.19l.259-.333a.891.891,0,0,1-.154.151l.333-.259a.894.894,0,0,1-.157.091l.394-.165a.987.987,0,0,1-.176.05l.441-.058a3.089,3.089,0,0,1-.391.008H106.84c-.441,0-.881.006-1.322,0a.979.979,0,0,1-.127-.008l.441.058a.986.986,0,0,1-.176-.05l.394.165a.894.894,0,0,1-.157-.091l.333.259a.8.8,0,0,1-.154-.151l.259.333a1,1,0,0,1-.11-.19c.055.132.11.264.165.394a1.014,1.014,0,0,1-.05-.179c.019.146.039.292.058.441a5.487,5.487,0,0,1-.008-.639V31.786c0-.262,0-.52,0-.782a1.2,1.2,0,0,1,.008-.14c-.019.146-.039.292-.058.441a.986.986,0,0,1,.05-.176c-.055.132-.11.264-.165.394a.962.962,0,0,1,.11-.184l-.259.333a.9.9,0,0,1,.127-.124l-.333.259a.894.894,0,0,1,.187-.107l-.394.165a.978.978,0,0,1,.176-.047l-.441.058a3.09,3.09,0,0,1,.391-.008h9.486c.441,0,.881-.006,1.322,0a.979.979,0,0,1,.127.008l-.441-.058a.978.978,0,0,1,.176.047l-.394-.165a.913.913,0,0,1,.187.107l-.333-.259a.9.9,0,0,1,.127.124l-.259-.333a.884.884,0,0,1,.11.184c-.055-.132-.11-.264-.165-.394a.987.987,0,0,1,.05.176c-.019-.146-.039-.292-.058-.441a4.234,4.234,0,0,1,.008.529v4.1a1.655,1.655,0,0,0,1.652,1.652,1.667,1.667,0,0,0,1.168-.485,1.714,1.714,0,0,0,.485-1.168V31.139a2.8,2.8,0,0,0-.1-.856,2.463,2.463,0,0,0-2.321-1.716c-.573-.011-1.146,0-1.716,0H107.52c-.658,0-1.316,0-1.972,0h-.033a2.682,2.682,0,0,0-.333.039,2.28,2.28,0,0,0-.363.063,2.591,2.591,0,0,0-.95.542.9.9,0,0,0-.127.124,2.974,2.974,0,0,0-.319.421,2.233,2.233,0,0,0-.292.887,2.924,2.924,0,0,0-.039.344c0,.116,0,.229,0,.344V50.348c0,.369-.006.738,0,1.107a2.415,2.415,0,0,0,.807,1.812,2.531,2.531,0,0,0,.956.54,2.441,2.441,0,0,0,.661.094h10.61c.162,0,.325,0,.487,0a2.421,2.421,0,0,0,1.253-.355,2.5,2.5,0,0,0,1.082-1.437,3.133,3.133,0,0,0,.088-.829v-4.3a1.655,1.655,0,0,0-1.652-1.652,1.669,1.669,0,0,0-1.66,1.655Z" transform="translate(0)" fill="#2b71f8"/>
    <path id="Path_255" data-name="Path 255" d="M213.712,250.722h14.1c.65,0,1.3.006,1.952,0h.028a1.655,1.655,0,0,0,1.652-1.652,1.667,1.667,0,0,0-.485-1.168,1.714,1.714,0,0,0-1.168-.485h-14.1c-.65,0-1.3-.006-1.952,0h-.028a1.655,1.655,0,0,0-1.652,1.652,1.667,1.667,0,0,0,.485,1.168A1.709,1.709,0,0,0,213.712,250.722Z" transform="translate(-103.482 -207.834)" fill="#2b71f8"/>
    <path id="Path_256" data-name="Path 256" d="M453.656,171.426l1.33,1.33,2.12,2.12.49.49v-2.338l-1.33,1.33-2.12,2.12-.49.49a1.7,1.7,0,0,0-.485,1.168,1.655,1.655,0,0,0,1.652,1.652,1.719,1.719,0,0,0,1.168-.485l1.33-1.33,2.12-2.12.49-.49a1.678,1.678,0,0,0,0-2.338l-3.94-3.94a1.7,1.7,0,0,0-1.168-.485,1.655,1.655,0,0,0-1.652,1.652,1.727,1.727,0,0,0,.485,1.173Z" transform="translate(-332.453 -132.987)" fill="#2b71f8"/>
  </g>
</svg>
