<svg xmlns="http://www.w3.org/2000/svg" width="17.994" height="23.85" viewBox="0 0 17.994 23.85">
  <path id="noun-notification-4679164" d="M180.595,42a2.537,2.537,0,0,0-2.518,2.536v.856a7.22,7.22,0,0,0-4.714,6.768v5.746l-1.44,3.032h0a.687.687,0,0,0,.62.981h4.346a3.717,3.717,0,0,0,7.413,0h4.346a.687.687,0,0,0,.62-.981l-1.44-3.032V52.161a7.22,7.22,0,0,0-4.714-6.768v-.856A2.537,2.537,0,0,0,180.595,42Zm0,1.373a1.136,1.136,0,0,1,1.145,1.163v.5a7.257,7.257,0,0,0-2.289,0v-.5A1.136,1.136,0,0,1,180.595,43.373Zm0,2.943a5.824,5.824,0,0,1,5.859,5.845v5.9a.685.685,0,0,0,.066.295l1.041,2.19H173.629l1.041-2.19h0a.685.685,0,0,0,.066-.295v-5.9a5.824,5.824,0,0,1,5.859-5.845Zm-2.327,15.6h4.654a2.345,2.345,0,0,1-4.654,0Z" transform="translate(-171.598 -41.75)" fill="#2b71f8" stroke="#2b71f8" stroke-linecap="round" stroke-linejoin="round" stroke-width="0.5"/>
</svg>
