<svg xmlns="http://www.w3.org/2000/svg" width="193.778" height="193.782" viewBox="0 0 193.778 193.782">
  <g id="noun-resource-2572189" transform="translate(-260.531 52.502)">
    <path id="Path_215" data-name="Path 215" d="M216.549,103.126a5.137,5.137,0,0,0,5.076-4.406,63.146,63.146,0,0,0,0-17.223,5.141,5.141,0,0,0-5.078-4.409h-12.32a46.289,46.289,0,0,0-3.717-8.965l8.715-8.714a5.142,5.142,0,0,0,.476-6.7,62.1,62.1,0,0,0-12.194-12.194,5.143,5.143,0,0,0-6.7.473L182.091,49.7a46.153,46.153,0,0,0-8.965-3.717V33.665a5.138,5.138,0,0,0-4.406-5.076,63.381,63.381,0,0,0-17.223,0,5.139,5.139,0,0,0-4.408,5.078V45.986a46.166,46.166,0,0,0-8.965,3.717l-8.715-8.715a5.139,5.139,0,0,0-6.7-.476,62.022,62.022,0,0,0-12.194,12.194,5.138,5.138,0,0,0,.473,6.7l8.716,8.714h0a46.141,46.141,0,0,0-3.716,8.965H103.666A5.141,5.141,0,0,0,98.589,81.5a63.085,63.085,0,0,0,0,17.223,5.14,5.14,0,0,0,5.077,4.408h12.321a46.149,46.149,0,0,0,3.716,8.965l-8.716,8.714h0a5.139,5.139,0,0,0-.476,6.7,62.061,62.061,0,0,0,12.2,12.2,5.144,5.144,0,0,0,6.7-.476l8.714-8.715h0a46.268,46.268,0,0,0,8.963,3.717v12.32a5.14,5.14,0,0,0,4.406,5.076,63.1,63.1,0,0,0,17.224,0,5.14,5.14,0,0,0,4.408-5.078v-12.32a46.253,46.253,0,0,0,8.965-3.717l8.714,8.715a5.146,5.146,0,0,0,6.7.475,62.051,62.051,0,0,0,12.2-12.2,5.14,5.14,0,0,0-.476-6.7l-8.715-8.714h0a46.159,46.159,0,0,0,3.719-8.965Zm-14.291,21.5a54.449,54.449,0,0,1-7.628,7.628L183.245,120.87l-2.58,1.631h0a38.627,38.627,0,0,1-12.191,5.055l-2.976.671v16.093a55.613,55.613,0,0,1-10.778,0V128.229l-2.976-.671a38.634,38.634,0,0,1-12.191-5.055l-2.58-1.631-11.385,11.385a54.533,54.533,0,0,1-7.628-7.628l11.387-11.385-1.631-2.58h0a38.628,38.628,0,0,1-5.055-12.191l-.671-2.976H105.891c-.174-1.782-.262-3.587-.262-5.389s.089-3.606.262-5.388h16.095l.671-2.976h0a38.61,38.61,0,0,1,5.055-12.19l1.631-2.58L117.958,55.584a54.458,54.458,0,0,1,7.628-7.628l11.385,11.387,2.58-1.631a38.665,38.665,0,0,1,12.191-5.057l2.976-.671V35.891a55.611,55.611,0,0,1,10.778,0V51.986l2.976.671h0a38.672,38.672,0,0,1,12.191,5.057l2.58,1.631L194.63,47.956a54.537,54.537,0,0,1,7.628,7.628L190.871,66.971l1.631,2.58h0a38.6,38.6,0,0,1,5.055,12.19l.671,2.976h16.093c.174,1.782.262,3.587.262,5.388s-.087,3.608-.262,5.389H198.23l-.671,2.976a38.634,38.634,0,0,1-5.055,12.191l-1.632,2.58Zm-42.152-59.3a24.81,24.81,0,1,0,17.516,7.266,24.781,24.781,0,0,0-17.516-7.266Zm0,41.937v0a17.172,17.172,0,1,1,12.123-5.029,17.151,17.151,0,0,1-12.123,5.029Zm94.059,59.814a27.465,27.465,0,1,0-31.684,0,50.53,50.53,0,0,0-34.608,47.888,3.816,3.816,0,0,0,3.816,3.815h93.268a3.816,3.816,0,0,0,3.816-3.815,50.53,50.53,0,0,0-34.608-47.888Zm-35.677-22.4A19.86,19.86,0,1,1,224.3,158.7a19.836,19.836,0,0,1-5.817-14.02ZM195.673,211.15a42.821,42.821,0,0,1,85.3,0Z" transform="translate(164.035 -79)" fill="#2a71f9" stroke="#2a71f9" stroke-width="3"/>
  </g>
</svg>
