<svg xmlns="http://www.w3.org/2000/svg" width="27.874" height="30.953" viewBox="0 0 27.874 30.953">
  <path id="noun-books-204882" d="M125.876,18.157h0c0-.155-.078-.233-.078-.311-.078-.078-.078-.155-.155-.233l-2.329-1.864c-.078,0-.078-.078-.155-.078V7.442a1.621,1.621,0,0,0-.621-1.242,1.53,1.53,0,0,0-1.165-.233A1.18,1.18,0,0,1,120.286,4.8a.959.959,0,0,0-.311-.621.754.754,0,0,0-.7-.078l-1.009.388V3.327a.787.787,0,0,0-.466-.7,1.565,1.565,0,0,0-.854-.233h-.078a1.226,1.226,0,0,1-1.242-1.242.52.52,0,0,0-.311-.544.729.729,0,0,0-.7-.078L101.573,5.656a1.31,1.31,0,0,0-.854,1.32v7.687l-2.252,1.009a.779.779,0,0,0-.466.776V22.5a.706.706,0,0,0,.311.621l10.4,8.153a1.105,1.105,0,0,0,.466.155.468.468,0,0,0,.311-.078l15.917-6.677a.746.746,0,0,0,.466-.7Zm-2.718-.544.466.388-.466.233ZM121.683,7.442V18.778L109.338,23.9V12.488l.078-.078Zm-2.718-1.63a3.206,3.206,0,0,0,.544.854l-10.793,4.426a.076.076,0,0,0-.078.078c-.233.078-.388.233-.544.233a1.262,1.262,0,0,1-1.165-.854Zm-11.1,7.066v9.861l-.932-.776V12.566a2.621,2.621,0,0,0,.932.31Zm8.851-9.24V5.113l-10.4,4.115a.076.076,0,0,0-.078.078,1.182,1.182,0,0,0-.854,1.32V20.8l-.544-.388-.466-.388V9.461a1.352,1.352,0,0,1,.932-1.32Zm-2.329-1.708a2.952,2.952,0,0,0,.7,1.009l-10.948,4.5a2.377,2.377,0,0,1-.7.233,1.258,1.258,0,0,1-1.242-.932ZM102.117,8.762a2.609,2.609,0,0,0,1.087.388v9.939l-1.087-.854Zm-1.4,7.532v.854l-.7-.544Zm23.6,7.3-14.985,6.289-9.783-7.687v-3.96l4.348,3.339,4.814,3.8a.714.714,0,0,0,.776.078l14.83-6.212Z" transform="translate(-98.002 -0.48)" fill="#2b71f8"/>
</svg>
