<svg xmlns="http://www.w3.org/2000/svg" width="37.858" height="27.869" viewBox="0 0 37.858 27.869">
  <g id="noun-project-management-4578739" transform="translate(0.5 0.5)">
    <path id="Path_241" data-name="Path 241" d="M58.177,4.432V3.487A1.8,1.8,0,0,0,56.4,1.678H55.382V.224A.219.219,0,0,0,55.165,0H35.392a.219.219,0,0,0-.217.221V1.678H32.982a1.847,1.847,0,0,0-1.829,1.859V22.56a1.847,1.847,0,0,0,1.829,1.86h23.7a1.847,1.847,0,0,0,1.829-1.86V5.5a1.86,1.86,0,0,0-.334-1.068ZM56.4,1.949a1.244,1.244,0,0,1,1.4,1.344l-.123.681a1.316,1.316,0,0,0-.994-.333h-1.3V1.949ZM36.082.224H54.522V3.64H41.77a.909.909,0,0,1-.785-.457L40.649,2.6a1.83,1.83,0,0,0-1.579-.92H36.083Z" transform="translate(-31.153 -0.004)" fill="#fff" stroke="#2b71f8" stroke-width="1"/>
    <path id="Path_242" data-name="Path 242" d="M240.712,136.315l-1.777-.193c-.077,0-.116-.039-.154-.116l-.232-.579a.176.176,0,0,1,0-.193l1.159-1.391a.589.589,0,0,0-.039-.773l-1.082-1.082a.587.587,0,0,0-.773-.039l-1.391,1.159a.29.29,0,0,1-.193.039,3.62,3.62,0,0,0-.579-.232c-.077-.039-.116-.077-.116-.154l-.193-1.777a.585.585,0,0,0-.579-.5h-1.545a.617.617,0,0,0-.579.5l-.193,1.777c0,.077-.039.116-.116.154l-.579.232c-.077.039-.116.039-.193-.039l-1.391-1.159a.589.589,0,0,0-.773.039l-1.044,1.12a.587.587,0,0,0-.039.773l1.159,1.391a.173.173,0,0,1,0,.193,3.616,3.616,0,0,0-.232.579c-.039.077-.077.116-.154.116l-1.777.193a.585.585,0,0,0-.5.579v1.545a.617.617,0,0,0,.5.579l1.777.193c.077,0,.116.039.154.116l.232.579a.176.176,0,0,1,0,.193l-1.159,1.391a.589.589,0,0,0,.039.773l1.082,1.082a.587.587,0,0,0,.773.039l1.391-1.159a.29.29,0,0,1,.193-.039,3.618,3.618,0,0,0,.579.232c.077.039.116.077.116.154l.193,1.777a.585.585,0,0,0,.579.5H234.8a.617.617,0,0,0,.579-.5l.193-1.777c0-.077.039-.116.116-.154l.579-.232c.077-.039.116-.039.193.039l1.391,1.159a.589.589,0,0,0,.773-.039l1.082-1.082a.587.587,0,0,0,.039-.773l-1.159-1.391a.173.173,0,0,1,0-.193,3.622,3.622,0,0,0,.232-.579c.039-.077.077-.116.154-.116l1.777-.193a.585.585,0,0,0,.5-.579v-1.545a.627.627,0,0,0-.54-.618Zm-6.684,4.1a2.782,2.782,0,1,1,2.782-2.782A2.77,2.77,0,0,1,234.028,140.411Z" transform="translate(-219.863 -123.503)" fill="#2b71f8"/>
    <g id="Path_244" data-name="Path 244" transform="translate(-271.736 -352.635)" fill="#2b71f8" fill-rule="evenodd">
      <path d="M 298.888427734375 379.5034790039062 C 298.1402893066406 379.5034790039062 297.4368286132812 379.212158203125 296.9076232910156 378.6832580566406 L 293.4553527832031 375.2310791015625 C 292.9263916015625 374.7026977539062 292.635009765625 373.9991149902344 292.6350402832031 373.2501525878906 C 292.6350402832031 372.5012512207031 292.9264526367188 371.7977905273438 293.45556640625 371.2693481445312 C 293.9836730957031 370.7406311035156 294.6871948242188 370.4492492675781 295.4360961914062 370.4492492675781 C 296.1849975585938 370.4492492675781 296.8884887695312 370.7406311035156 297.4169921875 371.269775390625 L 298.8882141113281 372.7409362792969 L 303.8118286132812 367.8173522949219 C 304.3401794433594 367.2884521484375 305.0436706542969 366.9970703125 305.7926025390625 366.9970703125 C 306.54150390625 366.9970703125 307.2450256347656 367.2884521484375 307.7735290527344 367.8175354003906 C 308.3022766113281 368.3457336425781 308.5936584472656 369.0492858886719 308.5936279296875 369.7982482910156 C 308.5935974121094 370.5471496582031 308.3022155761719 371.2505798339844 307.7731628417969 371.779052734375 L 300.8689575195312 378.6831665039062 C 300.3399963378906 379.2121276855469 299.6366271972656 379.5034790039062 298.888427734375 379.5034790039062 Z" stroke="none"/>
      <path d="M 298.888427734375 379.0034484863281 C 299.4773254394531 379.0034484863281 300.066162109375 378.7788391113281 300.5154113769531 378.32958984375 L 307.4197998046875 371.42529296875 C 308.3182373046875 370.5278930664062 308.3182373046875 369.0684204101562 307.4197998046875 368.1708984375 C 306.5223388671875 367.2724609375 305.0628967285156 367.2724609375 304.1653747558594 368.1708984375 L 298.8882141113281 373.4480590820312 L 298.8884887695312 373.4483032226562 L 298.8879699707031 373.4483032226562 L 298.8882141113281 373.4480590820312 L 297.063232421875 371.6231079101562 C 296.1657409667969 370.7245788574219 294.7063293457031 370.7246398925781 293.8088989257812 371.6231079101562 C 292.910400390625 372.5205078125 292.910400390625 373.97998046875 293.8088989257812 374.8775024414062 L 297.2610778808594 378.32958984375 C 297.7105712890625 378.7788391113281 298.2995300292969 379.0034484863281 298.888427734375 379.0034484863281 M 298.888427734375 380.0034790039062 C 298.0067749023438 380.0034790039062 297.1777648925781 379.6601867675781 296.5541381835938 379.0368957519531 L 293.101806640625 375.5846252441406 C 292.4784545898438 374.9619750976562 292.135009765625 374.1327819824219 292.1350402832031 373.2501525878906 C 292.1350402832031 372.3675842285156 292.4785461425781 371.5384826660156 293.1022338867188 370.9155578613281 C 293.7243957519531 370.292724609375 294.5535278320312 369.9492492675781 295.4360961914062 369.9492492675781 C 296.3186645507812 369.9492492675781 297.1477966308594 370.292724609375 297.770751953125 370.9164123535156 L 298.8882141113281 372.0338439941406 L 303.4582824707031 367.4637756347656 C 304.0809020996094 366.8405151367188 304.9100341796875 366.4970703125 305.7926025390625 366.4970703125 C 306.6751708984375 366.4970703125 307.5043029785156 366.8405151367188 308.1272888183594 367.4641723632812 C 308.7502136230469 368.0864562988281 309.0936584472656 368.9156494140625 309.0936279296875 369.7982788085938 C 309.0935974121094 370.6808166503906 308.7501220703125 371.5098876953125 308.1264953613281 372.1328125 L 301.2225036621094 379.0367126464844 C 300.59912109375 379.6601257324219 299.7702026367188 380.0034790039062 298.888427734375 380.0034790039062 Z" stroke="none" fill="#fff"/>
    </g>
  </g>
</svg>
