<svg xmlns="http://www.w3.org/2000/svg" width="28.879" height="28.879" viewBox="0 0 28.879 28.879">
  <g id="noun-resource-2572189" transform="translate(-262.033 51)">
    <path id="Path_215" data-name="Path 215" d="M115.944,39.372a.778.778,0,0,0,.768-.667,9.558,9.558,0,0,0,0-2.607.778.778,0,0,0-.769-.667h-1.865a7.007,7.007,0,0,0-.563-1.357l1.319-1.319a.778.778,0,0,0,.072-1.014,9.4,9.4,0,0,0-1.846-1.846.779.779,0,0,0-1.015.072l-1.319,1.319a6.987,6.987,0,0,0-1.357-.563V28.857a.778.778,0,0,0-.667-.768,9.594,9.594,0,0,0-2.607,0,.778.778,0,0,0-.667.769v1.865a6.988,6.988,0,0,0-1.357.563l-1.319-1.319a.778.778,0,0,0-1.014-.072,9.389,9.389,0,0,0-1.846,1.846.778.778,0,0,0,.072,1.015l1.319,1.319h0a6.985,6.985,0,0,0-.562,1.357H98.856a.778.778,0,0,0-.769.667,9.549,9.549,0,0,0,0,2.607.778.778,0,0,0,.769.667h1.865a6.986,6.986,0,0,0,.562,1.357l-1.319,1.319h0a.778.778,0,0,0-.072,1.014,9.4,9.4,0,0,0,1.847,1.846.779.779,0,0,0,1.014-.072l1.319-1.319h0a7,7,0,0,0,1.357.563v1.865a.778.778,0,0,0,.667.768,9.551,9.551,0,0,0,2.607,0,.778.778,0,0,0,.667-.769V44.08a7,7,0,0,0,1.357-.563l1.319,1.319a.779.779,0,0,0,1.014.072,9.393,9.393,0,0,0,1.846-1.846.778.778,0,0,0-.072-1.014l-1.319-1.319h0a6.987,6.987,0,0,0,.563-1.357Zm-2.163,3.255a8.243,8.243,0,0,1-1.155,1.155L110.9,42.058l-.391.247h0a5.847,5.847,0,0,1-1.845.765l-.451.1v2.436a8.418,8.418,0,0,1-1.631,0V43.172l-.451-.1a5.848,5.848,0,0,1-1.845-.765l-.391-.247-1.723,1.723a8.255,8.255,0,0,1-1.155-1.155l1.724-1.723-.247-.391h0a5.847,5.847,0,0,1-.765-1.845l-.1-.451H99.193c-.026-.27-.04-.543-.04-.816s.013-.546.04-.816h2.436l.1-.451h0a5.845,5.845,0,0,1,.765-1.845l.247-.391-1.723-1.724a8.243,8.243,0,0,1,1.155-1.155l1.723,1.724.391-.247a5.853,5.853,0,0,1,1.845-.765l.451-.1V29.195a8.418,8.418,0,0,1,1.631,0v2.436l.451.1h0a5.854,5.854,0,0,1,1.845.765l.391.247,1.723-1.724a8.256,8.256,0,0,1,1.155,1.155L112.057,33.9l.247.391h0a5.844,5.844,0,0,1,.765,1.845l.1.451h2.436c.026.27.04.543.04.816s-.013.546-.04.816h-2.436l-.1.451a5.848,5.848,0,0,1-.765,1.845l-.247.391ZM107.4,33.65a3.756,3.756,0,1,0,2.651,1.1,3.751,3.751,0,0,0-2.651-1.1Zm0,6.348h0a2.6,2.6,0,1,1,1.835-.761A2.6,2.6,0,0,1,107.4,40Zm14.238,9.054a4.158,4.158,0,1,0-4.8,0A7.649,7.649,0,0,0,111.6,56.3a.578.578,0,0,0,.578.577H126.3a.578.578,0,0,0,.578-.577,7.649,7.649,0,0,0-5.239-7.249Zm-5.4-3.391a3.006,3.006,0,1,1,.881,2.122,3,3,0,0,1-.881-2.122Zm-3.454,10.062a6.482,6.482,0,0,1,12.912,0Z" transform="translate(164.035 -79)" fill="#2a71f9"/>
  </g>
</svg>
