<svg xmlns="http://www.w3.org/2000/svg" width="167.803" height="183.5" viewBox="0 0 167.803 183.5">
  <g id="noun-user-1779990" transform="translate(-113.3 -20.902)">
    <path id="Path_216" data-name="Path 216" d="M197.2,22.4a41.2,41.2,0,1,0,41.2,41.2A41.321,41.321,0,0,0,197.2,22.4Zm0,15.7A25.506,25.506,0,1,1,171.7,63.6,25.387,25.387,0,0,1,197.2,38.1Zm0,70.631c-45.64,0-82.4,38.955-82.4,86.326a7.85,7.85,0,0,0,7.847,7.847H271.756a7.85,7.85,0,0,0,7.847-7.847c0-47.371-36.762-86.326-82.4-86.326Zm0,15.7c34.2,0,62.25,27.278,65.971,62.783H131.231C134.951,151.7,163,124.424,197.2,124.424Z" transform="translate(0 0)" fill="#2a71f9" stroke="#fff" stroke-width="3"/>
  </g>
</svg>
