<svg xmlns="http://www.w3.org/2000/svg" width="179.473" height="185.979" viewBox="0 0 179.473 185.979">
  <g id="noun-work-2614152" transform="translate(-105.464 -26.498)">
    <path id="Path_211" data-name="Path 211" d="M179.137,325.913c-3.253,0-5.9-2.236-8.336-4.27-1.017-.813-2.846-2.439-3.659-2.439-.407.2-2.236,1.627-3.456,2.439-2.846,2.236-6.1,5.083-9.963,4.066-4.066-.813-5.9-4.88-7.319-8.132-.61-1.22-1.424-3.254-2.034-3.659a27.8,27.8,0,0,0-4.066.813c-3.659.813-7.726,1.829-10.775-.61-3.253-2.439-3.049-6.709-3.049-10.369a24.812,24.812,0,0,0-.2-4.27c-.407-.2-2.643-.61-3.863-1.017-3.456-.813-7.726-1.627-9.556-5.286s.2-7.319,1.829-10.573c.61-1.22,1.627-3.253,1.627-4.066a25.874,25.874,0,0,0-3.049-2.439c-2.846-2.237-6.3-4.88-6.3-8.946s3.456-6.912,6.3-8.946c1.017-.813,2.846-2.236,3.049-2.846a22.762,22.762,0,0,0-1.627-3.659c-1.627-3.253-3.456-7.116-1.829-10.572,1.829-3.659,6.1-4.473,9.556-5.286a16.132,16.132,0,0,0,4.066-1.22,26.27,26.27,0,0,0,0-4.066c0-3.659-.2-7.929,3.049-10.368,3.049-2.439,7.319-1.424,10.775-.61a11.374,11.374,0,0,0,4.27.61c.2-.407,1.22-2.439,1.829-3.456,1.424-3.253,3.253-7.319,7.319-8.132,3.863-.813,7.117,1.83,9.963,4.066,1.017.813,2.846,2.439,3.659,2.439.407-.2,2.236-1.627,3.456-2.439,2.846-2.439,6.1-4.88,9.963-4.066,4.066.813,5.9,4.88,7.319,8.132.61,1.219,1.424,3.253,2.034,3.659a27.786,27.786,0,0,0,4.066-.813c3.659-.813,7.726-1.83,10.775.61,3.253,2.439,3.049,6.709,3.049,10.368a24.822,24.822,0,0,0,.2,4.27c.407.2,2.644.61,3.863,1.017,3.456.813,7.726,1.627,9.556,5.286s-.2,7.319-1.829,10.573c-.61,1.22-1.627,3.253-1.627,4.066a25.91,25.91,0,0,0,3.049,2.439c2.846,2.237,6.3,4.88,6.3,8.946s-3.456,6.912-6.3,8.946c-1.017.813-2.846,2.237-3.049,2.846a22.766,22.766,0,0,0,1.627,3.659c1.627,3.253,3.456,7.117,1.829,10.572-1.829,3.659-6.1,4.473-9.556,5.286a16.121,16.121,0,0,0-4.066,1.22,26.259,26.259,0,0,0,0,4.066c0,3.659.2,7.929-3.049,10.369s-7.319,1.424-10.775.61a19.362,19.362,0,0,0-4.27-.813c-.2.407-1.22,2.439-1.829,3.456-1.424,3.253-3.253,7.319-7.319,8.132a2.445,2.445,0,0,1-1.627.407Zm-34.564-19.924a7.973,7.973,0,0,1,3.659.812c2.846,1.424,4.473,4.676,5.693,7.522a18.6,18.6,0,0,0,1.829,3.456,13.718,13.718,0,0,0,2.846-2.237c2.439-2.034,5.286-4.27,8.539-4.27,3.456,0,6.1,2.237,8.539,4.27a27.4,27.4,0,0,0,2.846,2.237c.61-.813,1.22-2.439,1.829-3.456,1.22-2.846,2.846-6.1,5.693-7.522,3.049-1.424,6.507-.61,9.556.2,1.017.2,2.643.61,3.659.813a23.4,23.4,0,0,0,.2-3.863c0-3.253-.2-6.709,2.034-9.353,2.034-2.644,5.49-3.253,8.742-3.863a19.148,19.148,0,0,0,3.659-1.017c-.2-.813-1.017-2.439-1.424-3.456-1.424-2.846-3.049-6.1-2.236-9.353s3.456-5.286,6.1-7.319a12.968,12.968,0,0,0,3.049-2.643,20.5,20.5,0,0,0-3.049-2.644c-2.643-2.034-5.286-4.066-6.1-7.319s.813-6.507,2.236-9.353a24.888,24.888,0,0,0,1.424-3.456,19.287,19.287,0,0,0-3.659-1.017c-3.049-.61-6.507-1.424-8.742-3.863-2.034-2.643-2.034-6.1-2.034-9.353a24.666,24.666,0,0,0-.2-3.863,11.884,11.884,0,0,0-3.659.813c-3.049.813-6.507,1.627-9.556.2-2.846-1.424-4.473-4.676-5.693-7.522a18.589,18.589,0,0,0-1.829-3.456,13.717,13.717,0,0,0-2.846,2.236c-2.439,2.034-5.286,4.27-8.539,4.27-3.456,0-6.1-2.237-8.539-4.27a27.418,27.418,0,0,0-2.846-2.236c-.61.812-1.22,2.439-1.829,3.456-1.22,2.846-2.846,6.1-5.693,7.522-3.049,1.424-6.507.61-9.555-.2-1.017-.2-2.643-.61-3.659-.813a23.405,23.405,0,0,0-.2,3.863c0,3.253.2,6.709-2.034,9.353-2.034,2.644-5.49,3.253-8.742,3.863a19.146,19.146,0,0,0-3.659,1.017c.2.812,1.017,2.439,1.424,3.456,1.424,2.846,3.049,6.1,2.237,9.353s-3.456,5.286-6.1,7.319a20.259,20.259,0,0,0-3.049,2.644,20.5,20.5,0,0,0,3.049,2.643c2.644,2.034,5.286,4.066,6.1,7.319s-.813,6.506-2.237,9.353a24.891,24.891,0,0,0-1.424,3.456,19.284,19.284,0,0,0,3.659,1.017c3.049.61,6.507,1.424,8.742,3.863,2.034,2.644,2.034,6.1,1.829,9.353a24.675,24.675,0,0,0,.2,3.863,11.891,11.891,0,0,0,3.659-.813,23.88,23.88,0,0,1,6.1-1.015Z" transform="translate(0 -114.935)" fill="#2a71f9" stroke="#2a71f9" stroke-width="3"/>
    <path id="Path_212" data-name="Path 212" d="M229.408,350.735a25.007,25.007,0,1,1,25.007-25.006A24.989,24.989,0,0,1,229.408,350.735Zm0-41.678a16.875,16.875,0,1,0,16.875,16.875A16.832,16.832,0,0,0,229.408,309.057Z" transform="translate(-62.062 -173.711)" fill="#2a71f9" stroke="#2a71f9" stroke-width="3"/>
    <path id="Path_213" data-name="Path 213" d="M428.317,143.193a19.518,19.518,0,1,1,19.518-19.518A19.523,19.523,0,0,1,428.317,143.193Zm0-30.9A11.385,11.385,0,1,0,439.7,123.674,11.367,11.367,0,0,0,428.317,112.289Z" transform="translate(-192.252 -48.509)" fill="#2a71f9" stroke="#2a71f9" stroke-width="3"/>
    <path id="Path_214" data-name="Path 214" d="M379.448,122.131c-3.659,0-6.3-2.846-8.336-5.083a8.141,8.141,0,0,0-2.44-2.236,12.612,12.612,0,0,0-3.253.813c-2.846.813-6.3,2.034-9.556.2s-4.066-5.49-4.676-8.539a10.209,10.209,0,0,0-1.017-3.253,24.908,24.908,0,0,0-3.253-.813c-2.846-.61-6.507-1.424-8.539-4.676-1.829-3.253-.61-6.709.2-9.556a13.77,13.77,0,0,0,.813-3.456,11.424,11.424,0,0,0-2.237-2.236c-2.236-2.034-5.083-4.473-5.083-8.336,0-3.659,2.846-6.3,5.083-8.336a8.136,8.136,0,0,0,2.237-2.439,14.936,14.936,0,0,0-.813-3.253c-.812-2.846-2.034-6.3-.2-9.556s5.49-4.066,8.539-4.676a10.207,10.207,0,0,0,3.253-1.017,24.921,24.921,0,0,0,.813-3.253c.61-2.846,1.424-6.507,4.676-8.539,3.253-1.829,6.709-.61,9.556.2a13.775,13.775,0,0,0,3.456.813,11.423,11.423,0,0,0,2.236-2.236c2.238-1.828,4.679-4.674,8.54-4.674s6.3,2.846,8.336,5.083a8.132,8.132,0,0,0,2.439,2.236,14.942,14.942,0,0,0,3.254-.813c2.846-.813,6.3-2.034,9.555-.2s4.066,5.49,4.676,8.539a10.212,10.212,0,0,0,1.017,3.253,24.933,24.933,0,0,0,3.253.813c2.846.61,6.507,1.424,8.539,4.676,1.83,3.253.61,6.709-.2,9.556a13.774,13.774,0,0,0-.813,3.456,11.42,11.42,0,0,0,2.237,2.236c2.236,2.034,5.082,4.473,5.082,8.336,0,3.659-2.846,6.3-5.082,8.336a8.134,8.134,0,0,0-2.237,2.439,14.932,14.932,0,0,0,.813,3.253c.812,2.846,2.034,6.3.2,9.556s-5.489,4.066-8.539,4.676a10.211,10.211,0,0,0-3.253,1.017,24.9,24.9,0,0,0-.813,3.253c-.61,2.846-1.424,6.507-4.676,8.539-3.253,1.829-6.709.61-9.555-.2a13.774,13.774,0,0,0-3.456-.813,11.427,11.427,0,0,0-2.236,2.237C385.752,119.488,383.109,122.131,379.448,122.131Zm-10.775-15.452a8.359,8.359,0,0,1,2.236.2c2.644.813,4.473,2.846,6.3,4.676.813.813,2.034,2.236,2.644,2.439,0-.2,1.424-1.627,2.034-2.439,1.626-1.829,3.659-3.863,6.3-4.676s5.49.2,7.929,1.017c.812.2,2.236.61,3.049.813a10.979,10.979,0,0,0,.813-3.049c.61-2.439,1.22-5.286,3.049-7.319,2.034-2.034,4.88-2.643,7.319-3.049a16.965,16.965,0,0,0,3.049-.813,23.016,23.016,0,0,0-.812-3.049c-.813-2.439-1.627-5.286-1.017-7.929.813-2.643,2.846-4.473,4.676-6.3a11.637,11.637,0,0,0,2.236-2.237,23.254,23.254,0,0,0-2.236-2.236c-1.83-1.627-3.863-3.659-4.676-6.3s.2-5.49,1.017-7.929c.2-.813.61-2.237.812-3.049a10.984,10.984,0,0,0-3.049-.813c-2.439-.61-5.286-1.22-7.319-3.049s-2.643-4.88-3.049-7.319a16.961,16.961,0,0,0-.813-3.049,23.022,23.022,0,0,0-3.049.813c-2.439.813-5.083,1.627-7.929,1.017-2.643-.813-4.472-2.846-6.3-4.676-.813-.813-2.034-2.236-2.644-2.439,0,.2-1.424,1.627-2.034,2.439-1.627,1.829-3.659,3.863-6.3,4.676-2.846.813-5.489-.2-7.929-1.017-.812-.2-2.236-.61-3.049-.813a10.985,10.985,0,0,0-.812,3.049c-.61,2.439-1.22,5.286-3.049,7.319-2.034,2.034-4.88,2.643-7.319,3.049a16.982,16.982,0,0,0-3.049.813,23.086,23.086,0,0,0,.813,3.049c.813,2.439,1.627,5.286,1.017,7.929-.816,2.845-2.848,4.674-4.677,6.3-.813.813-2.236,2.034-2.44,2.643.2,0,1.627,1.424,2.44,2.034,1.83,1.627,3.863,3.659,4.676,6.3s-.2,5.49-1.017,7.929c-.2.813-.61,2.237-.812,3.049a10.981,10.981,0,0,0,3.049.813c2.44.61,5.286,1.22,7.319,3.049,2.034,2.034,2.644,4.88,3.049,7.319a16.973,16.973,0,0,0,.812,3.049,23.024,23.024,0,0,0,3.049-.813,18.086,18.086,0,0,1,5.694-1.422Z" transform="translate(-143.384)" fill="#2a71f9" stroke="#2a71f9" stroke-width="3"/>
  </g>
</svg>
