<svg xmlns="http://www.w3.org/2000/svg" width="22.892" height="18.805" viewBox="0 0 22.892 18.805">
  <g id="XMLID_530_" transform="translate(0 -23.25)">
    <g id="XMLID_531_" transform="translate(3.625 23.25)">
      <path id="XMLID_532_" d="M56.6,30.956a4.348,4.348,0,0,0,3.469-1.727,4.353,4.353,0,1,0,0-5.253A4.352,4.352,0,1,0,56.6,30.956Zm6.937-6.625A2.272,2.272,0,1,1,61.268,26.6,2.274,2.274,0,0,1,63.54,24.331Zm-6.937,0A2.272,2.272,0,1,1,54.331,26.6,2.274,2.274,0,0,1,56.6,24.331Z" transform="translate(-52.25 -22.25)" fill="#2b71f8"/>
    </g>
    <g id="XMLID_536_" transform="translate(0 33.037)">
      <path id="XMLID_782_" d="M14.915,177.75a7.986,7.986,0,0,0-3.47.794A7.976,7.976,0,0,0,0,185.728a1.041,1.041,0,0,0,1.041,1.041H21.852a1.041,1.041,0,0,0,1.041-1.041A7.987,7.987,0,0,0,14.915,177.75ZM2.173,184.687a5.9,5.9,0,0,1,11.609,0Zm13.714,0A7.963,7.963,0,0,0,13.522,180a5.9,5.9,0,0,1,7.2,4.689Z" transform="translate(0 -177.75)" fill="#2b71f8"/>
    </g>
  </g>
</svg>
