<svg xmlns="http://www.w3.org/2000/svg" width="206.685" height="163.857" viewBox="0 0 206.685 163.857">
  <g id="XMLID_530_" transform="translate(3 -27.25)">
    <g id="XMLID_531_" transform="translate(31.775 30.25)">
      <path id="XMLID_532_" d="M90.411,98.571a38.119,38.119,0,0,0,30.407-15.136,38.161,38.161,0,1,0,0-46.049A38.152,38.152,0,1,0,90.411,98.571Zm60.814-58.077a19.917,19.917,0,1,1-19.916,19.917A19.939,19.939,0,0,1,151.224,40.494Zm-60.814,0A19.917,19.917,0,1,1,70.494,60.411,19.939,19.939,0,0,1,90.411,40.494Z" transform="translate(-52.25 -22.25)" fill="#2b71f8" stroke="#fff" stroke-width="6"/>
    </g>
    <g id="XMLID_536_" transform="translate(0 109.049)">
      <path id="XMLID_782_" d="M130.75,177.75a70.006,70.006,0,0,0-30.42,6.957A69.923,69.923,0,0,0,0,247.686a9.122,9.122,0,0,0,9.122,9.122H191.563a9.122,9.122,0,0,0,9.122-9.122A70.015,70.015,0,0,0,130.75,177.75ZM19.05,238.564a51.7,51.7,0,0,1,101.772,0Zm120.226,0a69.807,69.807,0,0,0-20.733-41.108,51.7,51.7,0,0,1,63.091,41.108Z" transform="translate(0 -177.75)" fill="#2b71f8" stroke="#fff" stroke-width="6"/>
    </g>
  </g>
</svg>
